<svg width="30" height="30" viewBox="0 0 30 30" fill="none" xmlns="http://www.w3.org/2000/svg">
<path d="M28.8 0H1.2C0.53625 0 0 0.53625 0 1.2V28.8C0 29.4638 0.53625 30 1.2 30H28.8C29.4638 30 30 29.4638 30 28.8V1.2C30 0.53625 29.4638 0 28.8 0ZM23.0737 10.8638C23.085 11.04 23.085 11.2238 23.085 11.4038C23.085 16.9088 18.8925 23.25 11.2313 23.25C8.86875 23.25 6.67875 22.5638 4.83375 21.3825C5.17125 21.42 5.49375 21.435 5.83875 21.435C7.78875 21.435 9.58125 20.775 11.01 19.6575C9.18 19.62 7.6425 18.42 7.1175 16.77C7.75875 16.8638 8.33625 16.8638 8.99625 16.695C8.05397 16.5036 7.20703 15.9918 6.59931 15.2467C5.99159 14.5016 5.66057 13.569 5.6625 12.6075V12.555C6.21375 12.8663 6.8625 13.0575 7.54125 13.0838C6.97066 12.7035 6.50272 12.1883 6.17892 11.5839C5.85512 10.9794 5.68546 10.3044 5.685 9.61875C5.685 8.8425 5.8875 8.13375 6.25125 7.51875C7.29713 8.80626 8.60224 9.85928 10.0817 10.6094C11.5612 11.3595 13.182 11.7898 14.8388 11.8725C14.25 9.04125 16.365 6.75 18.9075 6.75C20.1075 6.75 21.1875 7.2525 21.9487 8.0625C22.89 7.88625 23.79 7.53375 24.5925 7.06125C24.2812 8.025 23.6288 8.83875 22.7625 9.3525C23.6025 9.2625 24.4125 9.03 25.1625 8.70375C24.5963 9.53625 23.8875 10.275 23.0737 10.8638Z" fill="white"/>
</svg>
